<svg width="256" height="256" viewBox="0 0 256 256" fill="none" xmlns="http://www.w3.org/2000/svg">
  <defs>
    <linearGradient id="outerGlow" x1="40" y1="28" x2="216" y2="228" gradientUnits="userSpaceOnUse">
      <stop stop-color="#A7F3D0"/>
      <stop offset="0.42" stop-color="#6CC7FF"/>
      <stop offset="1" stop-color="#1D4ED8"/>
    </linearGradient>
    <linearGradient id="innerPanel" x1="56" y1="52" x2="198" y2="206" gradientUnits="userSpaceOnUse">
      <stop stop-color="#14263D"/>
      <stop offset="1" stop-color="#0A1422"/>
    </linearGradient>
    <radialGradient id="lensGlow" cx="0" cy="0" r="1" gradientUnits="userSpaceOnUse" gradientTransform="translate(128 128) rotate(90) scale(68)">
      <stop stop-color="#DDF7FF"/>
      <stop offset="0.36" stop-color="#74D4FF"/>
      <stop offset="0.78" stop-color="#2563EB"/>
      <stop offset="1" stop-color="#0B1422"/>
    </radialGradient>
    <filter id="softShadow" x="16" y="8" width="224" height="240" filterUnits="userSpaceOnUse" color-interpolation-filters="sRGB">
      <feFlood flood-opacity="0" result="BackgroundImageFix"/>
      <feColorMatrix in="SourceAlpha" type="matrix" values="0 0 0 0 0 0 0 0 0 0 0 0 0 0 0 0 0 0 127 0" result="hardAlpha"/>
      <feOffset dy="14"/>
      <feGaussianBlur stdDeviation="14"/>
      <feComposite in2="hardAlpha" operator="out"/>
      <feColorMatrix type="matrix" values="0 0 0 0 0.0117647 0 0 0 0 0.0470588 0 0 0 0 0.129412 0 0 0 0.42 0"/>
      <feBlend mode="normal" in2="BackgroundImageFix" result="effect1_dropShadow_1_2"/>
      <feBlend mode="normal" in="SourceGraphic" in2="effect1_dropShadow_1_2" result="shape"/>
    </filter>
  </defs>
  <g filter="url(#softShadow)">
    <path d="M128 20L205.942 65V155L128 200L50.0577 155V65L128 20Z" fill="url(#innerPanel)"/>
    <path d="M128 32.1244L195.442 71.0622V148.938L128 187.876L60.5577 148.938V71.0622L128 32.1244Z" stroke="url(#outerGlow)" stroke-width="10"/>
    <path d="M128 56L170.435 80.5V129.5L128 154L85.5648 129.5V80.5L128 56Z" fill="#0E1D31" fill-opacity="0.92" stroke="#6CC7FF" stroke-opacity="0.45" stroke-width="4"/>
    <circle cx="128" cy="117" r="35" fill="url(#lensGlow)"/>
    <circle cx="128" cy="117" r="15" fill="#08111D" fill-opacity="0.86" stroke="#C7F1FF" stroke-opacity="0.7" stroke-width="3"/>
    <path d="M95 171C103.875 160.167 115 154.75 128.375 154.75C141.75 154.75 152.917 160.167 161.875 171" stroke="#A7F3D0" stroke-opacity="0.9" stroke-width="9" stroke-linecap="round"/>
    <path d="M88 171H169" stroke="#6CC7FF" stroke-opacity="0.22" stroke-width="18" stroke-linecap="round"/>
    <circle cx="128" cy="117" r="54" stroke="#6CC7FF" stroke-opacity="0.12" stroke-width="2" stroke-dasharray="7 9"/>
    <path d="M76 88L93 78" stroke="#A7F3D0" stroke-opacity="0.8" stroke-width="4" stroke-linecap="round"/>
    <path d="M180 88L163 78" stroke="#A7F3D0" stroke-opacity="0.8" stroke-width="4" stroke-linecap="round"/>
  </g>
</svg>
